<svg xmlns="http://www.w3.org/2000/svg" viewBox="0 0 49.607 49.648">
    <defs>
        <style>
            .cls-1{fill:#158ea5}
        </style>
    </defs>
    <g id="_57047" data-name="57047" transform="translate(-.02)">
        <path id="Shape" d="M13.6 1.41L0 15.01l6.84 6.84 13.64-13.6a4.853 4.853 0 0 0 0-6.84 4.9 4.9 0 0 0-6.88 0z" class="cls-1" transform="translate(27.736)"/>
        <path id="Shape-2" d="M31.043 24.172l-6.88-6.84-1.12-1.12a1.928 1.928 0 0 1-.52-1.92 10.889 10.889 0 0 0 .32-3.8 11.223 11.223 0 0 0-1.2-4.24A11.46 11.46 0 0 0 19 2.852a11.306 11.306 0 0 0-3.72-2.2 11.591 11.591 0 0 0-5.6-.52 1.2 1.2 0 0 0-.64 2.04l4.68 4.68a5 5 0 0 1 .12 6.96 4.877 4.877 0 0 1-6.88-.04l-4.8-4.72a1.22 1.22 0 0 0-.84-.36 1.2 1.2 0 0 0-1.2 1.04 10.245 10.245 0 0 0-.12 1.56 11.768 11.768 0 0 0 10.36 11.56 9.747 9.747 0 0 0 1.08.04 11.053 11.053 0 0 0 2.84-.36 2.086 2.086 0 0 1 1.96.56l1.08 1.08 1.92 1.92 2.84 2.84 2.08 2.08 15.52 15.52a4.851 4.851 0 1 0 6.88-6.84z" class="cls-1" data-name="Shape" transform="translate(1.053 .197)"/>
        <path id="Shape-3" d="M12.2 15.48l-.08-1a1.72 1.72 0 0 1 .52-1.36l4.68-4.68a.314.314 0 0 1 .44 0 2.415 2.415 0 0 0 3.44 0l1.56-1.56-1.92-1.92-1.52-1.52-1.52-1.52L15.876 0l-1.56 1.56a2.415 2.415 0 0 0 0 3.44.314.314 0 0 1 0 .44L9.6 10.12a1.722 1.722 0 0 1-1.36.52l-1-.08A1.194 1.194 0 0 0 6.2 11L.277 18.28a1.226 1.226 0 0 0 .08 1.64l1.24 1.24 1.24 1.24a1.224 1.224 0 0 0 1.64.08l7.28-5.92a1.623 1.623 0 0 0 .443-1.08z" class="cls-1" data-name="Shape" transform="translate(.02 26.89)"/>
    </g>
</svg>
