<svg xmlns="http://www.w3.org/2000/svg" viewBox="0 0 38.865 49.305">
    <defs>
        <style>
            .cls-1{fill:#8482ff}
        </style>
    </defs>
    <g id="iot__dev" transform="translate(-.028)">
        <path id="Combined_Shape" d="M0 33.516V30.7h2.783L4.555 0h6.636L12.3 19.3l.266 4.627.392 6.779h3.152v2.814z" class="cls-1" data-name="Combined Shape" transform="translate(11.523 15.789)"/>
        <path id="Combined_Shape-2" d="M31.838 27.874a.932.932 0 0 1-.011-1.327 17.708 17.708 0 0 0 0-24.951.931.931 0 0 1 .011-1.326.954.954 0 0 1 1.34.01 19.571 19.571 0 0 1 0 27.584.955.955 0 0 1-1.341.01zm-26.153-.01a19.571 19.571 0 0 1 0-27.583.952.952 0 0 1 1.34-.01.931.931 0 0 1 .012 1.329 17.705 17.705 0 0 0 0 24.951.932.932 0 0 1-.011 1.327.955.955 0 0 1-1.341-.01zm22.8-3.74a.931.931 0 0 1-.016-1.327 13.132 13.132 0 0 0 0-18.39.931.931 0 0 1 .017-1.327.955.955 0 0 1 1.34.015 14.994 14.994 0 0 1 0 21.011.953.953 0 0 1-1.34.016zM8.531 13.6a10.9 10.9 0 0 1 21.8 0 10.9 10.9 0 0 1-21.8 0zm2.844.47a.948.948 0 0 0 1.9 0 6.609 6.609 0 0 1 6.636-6.567.938.938 0 1 0 0-1.877 8.5 8.5 0 0 0-8.536 8.446zM9.034 24.108a15 15 0 0 1 0-21.011.956.956 0 0 1 1.341-.015.93.93 0 0 1 .016 1.326 13.131 13.131 0 0 0 0 18.39.93.93 0 0 1-.016 1.327.954.954 0 0 1-1.341-.016z" class="cls-1" data-name="Combined Shape" transform="translate(.028)"/>
    </g>
</svg>
