<?xml version="1.0" standalone="no"?><!DOCTYPE svg PUBLIC "-//W3C//DTD SVG 1.1//EN" "http://www.w3.org/Graphics/SVG/1.1/DTD/svg11.dtd"><svg class="icon" height="512" viewBox="0 0 1024 1024" version="1.1" xmlns="http://www.w3.org/2000/svg"><path d="M736 704c-32 0-64 12.8-89.6 25.6L492.8 576c6.4-19.2 12.8-38.4 12.8-64s-6.4-44.8-12.8-64l160-160c19.2 19.2 51.2 32 83.2 32C825.6 320 896 249.6 896 160S825.6 0 736 0 576 70.4 576 160c0 32 12.8 64 25.6 89.6L460.8 390.4c-32-38.4-70.4-64-115.2-70.4V249.6c57.6-12.8 96-64 96-121.6 0-70.4-57.6-128-128-128s-128 57.6-128 128c0 57.6 38.4 108.8 96 121.6V320c-96 19.2-166.4 96-166.4 192s70.4 172.8 160 185.6V768c-57.6 12.8-96 64-96 121.6 0 70.4 57.6 128 128 128s128-57.6 128-128c0-57.6-38.4-108.8-96-121.6v-70.4c44.8-6.4 89.6-32 115.2-70.4l147.2 147.2c-12.8 25.6-25.6 57.6-25.6 89.6 0 89.6 70.4 160 160 160s160-70.4 160-160-70.4-160-160-160z m0-640c51.2 0 96 44.8 96 96S787.2 256 736 256 640 211.2 640 160 684.8 64 736 64zM243.2 128c0-38.4 25.6-64 64-64s64 25.6 64 64-25.6 64-64 64-64-25.6-64-64z m128 768c0 38.4-25.6 64-64 64s-64-25.6-64-64 25.6-64 64-64 64 25.6 64 64z m-64-256c-70.4 0-128-57.6-128-128s57.6-128 128-128 128 57.6 128 128-57.6 128-128 128z m428.8 320c-51.2 0-96-44.8-96-96s44.8-96 96-96 96 44.8 96 96-44.8 96-96 96z" /></svg>