<svg xmlns="http://www.w3.org/2000/svg" viewBox="0 0 49.999 40.83">
    <defs>
        <style>
            .cls-1{fill:#a63dda}
        </style>
    </defs>
    <g id="_67745" data-name="67745" transform="translate(0 -.084)">
        <path id="Shape" d="M14.9 40.829a9.928 9.928 0 0 1-3.839-.807c-5.194-2.175-9.036-7.243-10.54-13.9A24.334 24.334 0 0 1 .238 24.6 21.334 21.334 0 0 1 5.186 7.549 21.152 21.152 0 0 1 21.248 0c.2 0 .442 0 .729.013A21.412 21.412 0 0 1 36.6 6.618a23.038 23.038 0 0 1 2.3 2.85l.041-.053c-.388-1.586.393-3.264 2.09-4.489a12.442 12.442 0 0 1 3.379-1.651 6.136 6.136 0 0 0 3.366-2.13.7.7 0 0 1 .565-.293.654.654 0 0 1 .085.005.693.693 0 0 1 .562.437c1.263 3.213 1.345 6.311.231 8.724a5.745 5.745 0 0 1-3.569 3.249l-.059.112a108.104 108.104 0 0 1-3.249 5.377 10.032 10.032 0 0 1-.2 2.424 9.478 9.478 0 0 1-6.242 6.764 89.055 89.055 0 0 1-3.484 4.286c-4.054 4.643-5.479 4.909-5.947 5a2.177 2.177 0 0 1-.389.037 1.8 1.8 0 0 1-1.025-.311c-1.241-.868-.732-2.706-.54-3.4a27.266 27.266 0 0 1 1.765-4.361c.408-.84.873-1.743 1.383-2.683a4.3 4.3 0 0 0-1.3-.212 2.656 2.656 0 0 0-2.784 2.394 7.661 7.661 0 0 0 .029 1.98 8.468 8.468 0 0 1 .035 2.058 10.09 10.09 0 0 1-1.2 3.453 8.534 8.534 0 0 1-7.543 4.644zm25.516-29.11a129.377 129.377 0 0 0-4.584 6.389 112.338 112.338 0 0 0-6.8 11.336 31.509 31.509 0 0 0-1.953 4.513 30.9 30.9 0 0 0 3.434-3.475 111.96 111.96 0 0 0 7.951-10.533 117.826 117.826 0 0 0 4.288-6.8 6.21 6.21 0 0 1-1.524-.787 8.161 8.161 0 0 1-.812-.644zM8.954 23.258a2.943 2.943 0 0 0-2.508 1.393 2.989 2.989 0 0 0 .927 4.109 2.947 2.947 0 0 0 4.083-.933 2.989 2.989 0 0 0-.928-4.109 2.937 2.937 0 0 0-1.574-.46zm.6-11.129a2.943 2.943 0 0 0-2.508 1.392 2.99 2.99 0 0 0 .927 4.109 2.948 2.948 0 0 0 4.084-.933 3 3 0 0 0-.928-4.109 2.925 2.925 0 0 0-1.574-.46zM29.487 8.14a2.98 2.98 0 1 0 2.5 4.568 2.989 2.989 0 0 0-.926-4.108 2.924 2.924 0 0 0-1.574-.46zm-11.05-2.58a2.943 2.943 0 0 0-2.508 1.392 2.991 2.991 0 0 0 .928 4.109 2.947 2.947 0 0 0 4.083-.933 2.994 2.994 0 0 0-.928-4.109 2.934 2.934 0 0 0-1.575-.459z" class="cls-1" transform="translate(0 .084)"/>
    </g>
</svg>
