<svg xmlns="http://www.w3.org/2000/svg" viewBox="0 0 42.888 49.916">
    <defs>
        <style>
            .cls-1{fill:#a5c545}
        </style>
    </defs>
    <g id="_14415" data-name="14415" transform="translate(-.013)">
        <path id="Shape" d="M3.126 0H3a3 3 0 0 0-3 2.976v12.955a2.992 2.992 0 0 0 3 2.978h.131a3 3 0 0 0 3-2.978V2.975A3 3 0 0 0 3.126 0z" class="cls-1" transform="translate(.013 16.276)"/>
        <path id="Shape-2" d="M0 20.456a2.748 2.748 0 0 0 2.755 2.73H5.7v7a3 3 0 0 0 3 2.98h.129a3 3 0 0 0 3-2.98v-7h4.111v7a3 3 0 0 0 3 2.98h.127a3 3 0 0 0 3-2.98v-7h2.946a2.748 2.748 0 0 0 2.753-2.73V0H0z" class="cls-1" data-name="Shape" transform="translate(7.573 16.751)"/>
        <path id="Shape-3" d="M27.916 15.513H.041A9.205 9.205 0 0 1 0 14.705a10.6 10.6 0 0 1 1.95-6.074 13.271 13.271 0 0 1 5.114-4.285L4.723.763A.489.489 0 0 1 4.87.081.5.5 0 0 1 5.144 0a.494.494 0 0 1 .418.226l2.42 3.707a16.13 16.13 0 0 1 11.991 0L22.4.226A.489.489 0 0 1 22.811 0a.5.5 0 0 1 .489.394.485.485 0 0 1-.07.369l-2.339 3.583A13.3 13.3 0 0 1 26 8.631a10.6 10.6 0 0 1 1.95 6.074c0 .248-.013.512-.039.807zM20.438 8.1a1.329 1.329 0 1 0 1.34 1.328 1.337 1.337 0 0 0-1.34-1.328zm-12.923 0a1.329 1.329 0 1 0 1.342 1.332A1.337 1.337 0 0 0 7.515 8.1z" class="cls-1" data-name="Shape" transform="translate(7.481)"/>
        <path id="Shape-4" d="M3.126 0H3a3 3 0 0 0-3 2.976v12.955a3 3 0 0 0 3 2.978h.127a2.994 2.994 0 0 0 3-2.978V2.975A3 3 0 0 0 3.126 0z" class="cls-1" data-name="Shape" transform="translate(36.776 16.276)"/>
    </g>
</svg>
