<svg xmlns="http://www.w3.org/2000/svg" id="_959664" data-name="959664" viewBox="0 0 50 50">
    <defs>
        <style>
            .cls-1{fill:#00f}
        </style>
    </defs>
    <path id="Shape" d="M25 50a25.006 25.006 0 1 1 25-25 25.029 25.029 0 0 1-25 25zM13.284 5.415A22.824 22.824 0 1 0 47.826 25a22.958 22.958 0 0 0-11.11-19.585l-2.232 3.727a18.5 18.5 0 1 1-18.965 0zM16.63 11A16.159 16.159 0 0 0 8.7 25a16.3 16.3 0 0 0 32.6 0 16.16 16.16 0 0 0-7.935-14l-.665 1.12-1.574 2.627a11.957 11.957 0 1 1-12.247 0zm3.359 5.6a9.783 9.783 0 1 0 10.021 0l-2.246 3.738a5.438 5.438 0 1 1-5.528 0zm4.981 5.141a2.862 2.862 0 0 0-.849.117 3.261 3.261 0 1 0 1.786.008c-.056-.017-.116-.029-.173-.041h-.01l-.038-.007-.033-.007a3.4 3.4 0 0 0-.683-.065z" class="cls-1"/>
    <path id="Path" d="M19.611 2.167l-9.134 15.227a5.668 5.668 0 0 0-1.343 0L0 2.167a23.269 23.269 0 0 1 19.611 0z" class="cls-1" transform="translate(15.195 2.21)"/>
</svg>
