<svg xmlns="http://www.w3.org/2000/svg" viewBox="0 0 40.714 50">
    <defs>
        <style>
            .cls-1{fill:#7d7d7d}
        </style>
    </defs>
    <g id="_152752" data-name="152752" transform="translate(-.143)">
        <path id="XMLID_229_" d="M2.1 6.524C-2.111 13.86.567 24.991 5.224 31.741c2.325 3.374 4.679 6.4 7.9 6.4h.184a9.732 9.732 0 0 0 3.668-.981 10.014 10.014 0 0 1 4.345-1.034 9.418 9.418 0 0 1 4.136 1 8.736 8.736 0 0 0 3.962.953c3.632-.068 5.861-3.336 7.828-6.22a27.614 27.614 0 0 0 3.43-7.051l.014-.044a.41.41 0 0 0-.217-.5l-.03-.013a10.442 10.442 0 0 1-6.308-9.567A10.758 10.758 0 0 1 39.2 5.691l.04-.025a.411.411 0 0 0 .116-.576A11.77 11.77 0 0 0 30.089.04 7.983 7.983 0 0 0 29.28 0a16.11 16.11 0 0 0-5.817 1.458 9.325 9.325 0 0 1-2.787.836 9.092 9.092 0 0 1-2.882-.846A13.926 13.926 0 0 0 12.715.153h-.129A12.451 12.451 0 0 0 2.1 6.524z" class="cls-1" transform="translate(.143 11.856)"/>
        <path id="XMLID_230_" d="M10.273 0a11.361 11.361 0 0 0-7.51 3.866A10.72 10.72 0 0 0 .065 11.8a.409.409 0 0 0 .373.355c.174.014.351.02.528.021a9.611 9.611 0 0 0 7.089-3.652A11.3 11.3 0 0 0 10.7.365.411.411 0 0 0 10.273 0z" class="cls-1" transform="translate(19.963)"/>
    </g>
</svg>
