<svg xmlns="http://www.w3.org/2000/svg" id="_711945" data-name="711945" viewBox="0 0 42.423 49.953">
    <defs>
        <style>
            .cls-1{fill:#836236}
        </style>
    </defs>
    <path id="Shape" d="M40.735 49.954H1.688A1.689 1.689 0 0 1 0 48.266v-2.251A18.613 18.613 0 0 1 14.572 27.9a20.252 20.252 0 0 1-4.276-6.02H8.159a1.69 1.69 0 0 1-1.689-1.69V8.825a1.69 1.69 0 0 1 1.689-1.688h1.35a13.163 13.163 0 0 1 23.405 0h1.351a1.689 1.689 0 0 1 1.688 1.688V20.19a1.69 1.69 0 0 1-1.687 1.688h-2.14a20.234 20.234 0 0 1-4.276 6.02 18.615 18.615 0 0 1 14.573 18.117v2.251a1.69 1.69 0 0 1-1.688 1.688zM9.846 10.513V18.5h22.787v-7.987z" class="cls-1"/>
</svg>
