<svg xmlns="http://www.w3.org/2000/svg" id="web" viewBox="0 0 33.388 33.389">
    <defs>
        <style>
            .cls-1{fill:#e24e30}
        </style>
    </defs>
    <path id="Path_965" d="M33.348 15.581A16.69 16.69 0 0 0 17.807.038V0h-2.226v.038A16.692 16.692 0 0 0 .038 15.581H0v2.226h.038a16.69 16.69 0 0 0 15.543 15.541v.04h2.226v-.04a16.688 16.688 0 0 0 15.541-15.541h.04v-2.226zM10.451 3.639A17.7 17.7 0 0 0 7.833 8.9H4.5a14.544 14.544 0 0 1 5.951-5.261zm-7.116 7.49h3.912a26.434 26.434 0 0 0-.547 4.452H2.268a14.343 14.343 0 0 1 1.066-4.452zm-1.067 6.678H6.7a26.434 26.434 0 0 0 .548 4.452H3.334a14.343 14.343 0 0 1-1.066-4.452zM4.5 24.485h3.331a17.647 17.647 0 0 0 2.62 5.264A14.529 14.529 0 0 1 4.5 24.485zm11.081 6.535c-2.288-.612-4.258-3.069-5.453-6.535h5.453zm0-8.761H9.5a24.877 24.877 0 0 1-.577-4.452h6.655zm0-6.678H8.926a24.878 24.878 0 0 1 .574-4.452h6.079zm0-6.678h-5.453c1.2-3.466 3.165-5.923 5.453-6.533zm13.309 0h-3.33a17.65 17.65 0 0 0-2.622-5.264A14.558 14.558 0 0 1 28.89 8.9zM17.807 2.371c2.286.61 4.258 3.067 5.453 6.533h-5.453zm0 8.759h6.077a25.076 25.076 0 0 1 .579 4.452h-6.656zm0 6.678h6.655a24.673 24.673 0 0 1-.579 4.452h-6.076zm0 13.213v-6.536h5.453c-1.195 3.465-3.167 5.923-5.453 6.535zm5.131-1.271a17.783 17.783 0 0 0 2.622-5.264h3.33a14.543 14.543 0 0 1-5.952 5.263zm7.116-7.49h-3.913a26.434 26.434 0 0 0 .548-4.452h4.429a14.279 14.279 0 0 1-1.064 4.451zm-3.366-6.678a26.434 26.434 0 0 0-.548-4.452h3.913a14.344 14.344 0 0 1 1.066 4.452z" class="cls-1" data-name="Path 965"/>
</svg>
